<?xml version="1.0" encoding="utf-8"?>
<!-- Generator: Adobe Illustrator 16.0.3, SVG Export Plug-In . SVG Version: 6.00 Build 0)  -->
<!DOCTYPE svg PUBLIC "-//W3C//DTD SVG 1.1//EN" "http://www.w3.org/Graphics/SVG/1.1/DTD/svg11.dtd">
<svg version="1.1" id="Capa_1" xmlns="http://www.w3.org/2000/svg" xmlns:xlink="http://www.w3.org/1999/xlink" x="0px" y="0px"
	 width="150px" height="150px" viewBox="0 0 150 150" enable-background="new 0 0 150 150" xml:space="preserve">
<path fill-rule="evenodd" clip-rule="evenodd" fill="#FFFFFE" d="M75.165,3.827c2.489,2.503,4.957,5.028,7.482,7.498
	c1.015,0.995,1.513,2.08,1.486,3.535c-0.068,4.051-0.023,8.106-0.023,12.414c0.588-0.309,0.972-0.5,1.349-0.708
	c1.114-0.615,2.194-1.3,3.345-1.839c4.576-2.151,5.344-1.994,8.846,1.489c9.496,9.448,18.987,18.902,28.526,28.307
	c0.948,0.937,1.382,1.809,0.858,3.042c-1.251,2.951-2.519,5.896-3.824,8.951c0.253,0.014,0.844,0.075,1.432,0.076
	c4.06,0.008,8.119-0.019,12.179,0.031c0.642,0.007,1.475,0.16,1.883,0.575c2.642,2.681,5.188,5.457,7.852,8.29
	c-2.475,2.503-5.203,5.315-8.012,8.047c-0.329,0.319-1.081,0.276-1.637,0.281c-4.517,0.02-9.029,0.01-13.894,0.01
	c0.467,0.748,0.776,1.263,1.105,1.766c1.612,2.453,2.852,5.064,3.022,8.035c0.041,0.708-0.233,1.658-0.719,2.14
	c-10.085,10.006-20.236,19.945-30.328,29.946c-0.925,0.915-1.93,1.187-2.971,0.815c-2.323-0.829-4.586-1.84-6.848-2.83
	c-0.662-0.291-1.241-0.768-2.15-1.344c0,3.006-0.306,5.746,0.063,8.391c0.713,5.074-0.889,8.915-4.967,11.974
	c-1.501,1.124-2.597,2.792-4.093,4.455c-2.858-2.939-5.422-5.522-7.9-8.19c-0.357-0.386-0.409-1.168-0.414-1.764
	c-0.036-4.121-0.02-8.238-0.021-12.354c0-0.615,0-1.234,0-2.23c-0.92,0.558-1.539,0.925-2.151,1.306
	c-2.494,1.544-5.107,2.85-8.119,2.659c-1.056-0.071-2.325-0.534-3.063-1.258c-9.688-9.501-19.278-19.103-28.939-28.632
	c-1.069-1.053-1.021-2.287-0.657-3.359c0.886-2.604,2.027-5.122,3.113-7.654c0.238-0.555,0.672-1.031,1.234-1.87
	c-2.097,0-3.859,0-5.622,0c-3.192,0-6.38,0.031-9.57-0.023c-0.636-0.013-1.46-0.162-1.87-0.574
	c-2.611-2.633-5.127-5.356-7.702-8.074c2.542-2.611,5.291-5.481,8.116-8.272c0.327-0.321,1.092-0.272,1.654-0.274
	c4.922-0.02,9.849-0.012,15.146-0.012c-0.52-0.797-0.862-1.354-1.233-1.894c-1.706-2.466-2.907-5.121-3.276-8.135
	c-0.149-1.244,0.107-2.188,1.041-3.112c9.868-9.732,19.686-19.517,29.563-29.238c0.536-0.527,1.594-1.018,2.237-0.854
	c2.439,0.625,4.826,1.466,7.189,2.351c0.896,0.337,1.673,1.005,2.783,1.696c0.052-0.736,0.114-1.264,0.119-1.791
	c0.012-4.001,0.057-8.004-0.01-12.004c-0.02-1.21,0.381-2.041,1.234-2.871c2.32-2.255,4.545-4.606,6.806-6.918
	C74.934,3.827,75.048,3.827,75.165,3.827z M110.081,39.567c-6.704,0-13.13-0.083-19.548,0.076c-1.196,0.03-2.562,0.819-3.51,1.646
	c-1.903,1.66-2.849,3.923-2.868,6.474c-0.038,5.562-0.023,11.124-0.019,16.687c0.002,0.437,0.1,0.873,0.147,1.289
	c5.539,0,10.936,0.255,16.303-0.064c6.547-0.391,9.491-3.825,9.494-10.286c0-0.579,0-1.159,0-1.738
	C110.081,49.025,110.081,44.401,110.081,39.567z M41.027,39.541c0,6.346,0.023,12.417-0.01,18.489
	c-0.014,2.505,1.02,4.548,3.169,5.577c2.14,1.022,4.526,1.89,6.856,2.058c4.612,0.33,9.261,0.135,13.895,0.144
	c0.552,0.002,1.107-0.071,1.632-0.108c0-6.469,0.326-12.786-0.105-19.051c-0.331-4.842-3.485-7.109-8.354-7.109
	c-1.274,0-2.55,0-3.824,0C49.952,39.541,45.616,39.541,41.027,39.541z M40.87,108.894c6.042,0,11.767,0.005,17.491,0
	c5.256,0,8.351-3.088,8.379-8.41c0.031-5.155,0.029-10.311,0.031-15.464c0-0.614-0.071-1.231-0.114-1.93
	c-5.911,0-11.652-0.255-17.36,0.074c-5.625,0.319-8.284,3.53-8.377,9.172c-0.014,0.867-0.048,1.736-0.05,2.606
	C40.865,99.507,40.87,104.074,40.87,108.894z M84.187,83.097c0,6.057-0.229,11.91,0.066,17.735c0.27,5.245,3.684,8.062,8.93,8.062
	c4.979,0.005,9.961,0,14.939,0c0.61,0,1.223,0,1.942,0c0-6.059,0.004-11.841-0.003-17.625c-0.005-3.94-1.61-6.237-5.317-7.606
	c-0.648-0.238-1.329-0.536-1.996-0.541C96.623,83.078,90.5,83.097,84.187,83.097z"/>
</svg>
